<?xml version="1.0" encoding="UTF-8" standalone="no"?><!DOCTYPE svg PUBLIC "-//W3C//DTD SVG 1.1//EN" "http://www.w3.org/Graphics/SVG/1.1/DTD/svg11.dtd"><svg width="100%" height="100%" viewBox="0 0 346 91" version="1.1" xmlns="http://www.w3.org/2000/svg" xmlns:xlink="http://www.w3.org/1999/xlink" xml:space="preserve" xmlns:serif="http://www.serif.com/" style="fill-rule:evenodd;clip-rule:evenodd;stroke-linejoin:round;stroke-miterlimit:1.41421;"><g><text x="88.626px" y="82.281px" style="font-family:'AlvaroCondensed', 'Alvaro';font-size:87.541px;fill:#504842;">802 SOCIAL</text><text x="337.577px" y="82.633px" style="font-family:'OpenSans', 'Open Sans', sans-serif;font-size:5.958px;fill:#504842;">TM</text><g><path d="M44.068,64.075c-3.791,-0.352 -12.828,9.458 -14.192,16.167c-1.364,6.709 5.026,9.915 8.817,10.267c3.791,0.352 7.39,-1.927 8.754,-8.636c1.364,-6.709 0.412,-17.446 -3.379,-17.798Zm9.152,-2.599c3.032,-2.306 15.897,1.238 20.606,6.211c4.71,4.972 0.983,11.077 -2.049,13.383c-3.032,2.305 -7.294,2.276 -12.003,-2.697c-4.71,-4.973 -9.586,-14.592 -6.554,-16.897Zm-50.16,-44.237c-5.935,4.432 -2.872,31.105 6.04,43.039c8.912,11.935 23.139,8.417 29.074,3.985c5.935,-4.432 7.347,-12.592 -1.565,-24.526c-8.912,-11.935 -27.614,-26.929 -33.549,-22.498Zm60.176,-17.227c7.384,0.62 18.905,24.884 17.658,39.733c-1.246,14.848 -15.186,19.394 -22.57,18.774c-7.384,-0.62 -12.903,-6.799 -11.656,-21.648c1.246,-14.849 9.184,-37.479 16.568,-36.859Z" style="fill:url(#_Linear1);"/></g></g><defs><linearGradient id="_Linear1" x1="0" y1="0" x2="1" y2="0" gradientUnits="userSpaceOnUse" gradientTransform="matrix(80.9876,0,-2.23208e-30,90.5438,0,45.2719)"><stop offset="0" style="stop-color:#c2ff6d;stop-opacity:1"/><stop offset="1" style="stop-color:#7ac92a;stop-opacity:1"/></linearGradient></defs></svg>